<svg xmlns="http://www.w3.org/2000/svg" xmlns:xlink="http://www.w3.org/1999/xlink" viewBox="0 0 201.56 194.19"><defs><style>.cls-1{isolation:isolate;}.cls-2{mix-blend-mode:multiply;opacity:0.4;fill:url(#radial-gradient);}.cls-3{fill:#670001;}.cls-4{fill:url(#linear-gradient);}.cls-5{fill:url(#linear-gradient-2);}.cls-6{fill:#560004;}.cls-7{fill:#3d0105;}.cls-8{fill:url(#linear-gradient-3);}.cls-9{fill:url(#linear-gradient-4);}.cls-10{fill:url(#linear-gradient-5);}</style><radialGradient id="radial-gradient" cx="143.32" cy="105.33" r="58.4" gradientTransform="translate(-77.43 155.98) scale(1.24 0.25)" gradientUnits="userSpaceOnUse"><stop offset="0" stop-opacity="0.95"/><stop offset="0.11" stop-color="#070707" stop-opacity="0.93"/><stop offset="0.23" stop-color="#1b1c1c" stop-opacity="0.89"/><stop offset="0.37" stop-color="#3d3e3f" stop-opacity="0.81"/><stop offset="0.5" stop-color="#6c6d6f" stop-opacity="0.7"/><stop offset="0.55" stop-color="#808184" stop-opacity="0.65"/><stop offset="0.69" stop-color="#87888b" stop-opacity="0.41"/><stop offset="0.9" stop-color="#8f9194" stop-opacity="0.11"/><stop offset="1" stop-color="#929497" stop-opacity="0"/></radialGradient><linearGradient id="linear-gradient" x1="101.61" y1="200.86" x2="101.61" y2="24.74" gradientUnits="userSpaceOnUse"><stop offset="0" stop-color="#c9221c"/><stop offset="0.24" stop-color="#fcb93e"/><stop offset="0.5" stop-color="#cb291e"/><stop offset="1" stop-color="#ffb73e"/></linearGradient><linearGradient id="linear-gradient-2" x1="101.61" y1="181.07" x2="101.61" y2="11.47" xlink:href="#linear-gradient"/><linearGradient id="linear-gradient-3" x1="107.17" y1="19.99" x2="107.17" y2="158.82" gradientUnits="userSpaceOnUse"><stop offset="0" stop-color="#faba3e"/><stop offset="1" stop-color="#c8211b"/></linearGradient><linearGradient id="linear-gradient-4" x1="102.19" y1="19.99" x2="102.19" y2="158.82" xlink:href="#linear-gradient-3"/><linearGradient id="linear-gradient-5" x1="89.63" y1="19.99" x2="89.63" y2="158.82" xlink:href="#linear-gradient-3"/></defs><g class="cls-1"><g id="Layer_2" data-name="Layer 2"><g id="Layer_1-2" data-name="Layer 1"><path class="cls-2" d="M201.56,182.18c0,6.63-45.12,12-100.78,12S0,188.81,0,182.18s45.12-12,100.78-12S201.56,175.55,201.56,182.18Z"/><path class="cls-3" d="M101.61,0a89.25,89.25,0,1,0,89.25,89.25A89.35,89.35,0,0,0,101.61,0Zm0,177.31a88.06,88.06,0,1,1,88.06-88.06A88.16,88.16,0,0,1,101.61,177.31Z"/><path class="cls-4" d="M101.61,1.19a88.06,88.06,0,1,0,88.06,88.06A88.16,88.16,0,0,0,101.61,1.19Zm0,174a86,86,0,1,1,86-86A86.09,86.09,0,0,1,101.61,175.23Z"/><path class="cls-3" d="M101.61,3.26a86,86,0,1,0,86,86A86.09,86.09,0,0,0,101.61,3.26Zm0,170.79a84.8,84.8,0,1,1,84.8-84.8A84.9,84.9,0,0,1,101.61,174.05Z"/><path class="cls-5" d="M101.61,4.45a84.8,84.8,0,1,0,84.8,84.8A84.89,84.89,0,0,0,101.61,4.45Zm0,164.43a79.63,79.63,0,1,1,79.63-79.63A79.72,79.72,0,0,1,101.61,168.88Z"/><path class="cls-3" d="M101.61,9.62a79.63,79.63,0,1,0,79.63,79.63A79.72,79.72,0,0,0,101.61,9.62Zm0,158.07a78.45,78.45,0,1,1,78.44-78.44A78.53,78.53,0,0,1,101.61,167.69Z"/><path class="cls-6" d="M101.61,10.8a78.45,78.45,0,1,0,78.44,78.45A78.53,78.53,0,0,0,101.61,10.8Zm0,154.77a76.33,76.33,0,1,1,76.33-76.32A76.41,76.41,0,0,1,101.61,165.57Z"/><path class="cls-7" d="M101.61,12.92a76.33,76.33,0,1,0,76.33,76.33A76.41,76.41,0,0,0,101.61,12.92Zm0,151.47a75.14,75.14,0,1,1,75.14-75.14A75.23,75.23,0,0,1,101.61,164.39Z"/><circle class="cls-3" cx="101.61" cy="89.25" r="75.14"/><rect class="cls-3" x="72.9" y="8.81" width="1.19" height="6.36" transform="translate(0.33 25.86) rotate(-20)"/><rect class="cls-3" x="59.91" y="14.87" width="1.19" height="6.36" transform="translate(-0.92 32.67) rotate(-30)"/><rect class="cls-3" x="48.17" y="23.09" width="1.19" height="6.36" transform="translate(-5.48 37.49) rotate(-40)"/><rect class="cls-3" x="38.04" y="33.22" width="1.19" height="6.36" transform="translate(-14.08 42.6) rotate(-50)"/><rect class="cls-3" x="29.82" y="44.96" width="1.19" height="6.36" transform="translate(-26.48 50.41) rotate(-60)"/><rect class="cls-3" x="23.76" y="57.95" width="1.19" height="6.36" transform="translate(-41.42 63.11) rotate(-70)"/><rect class="cls-3" x="20.05" y="71.79" width="1.19" height="6.36" transform="translate(-56.77 82.28) rotate(-80)"/><rect class="cls-3" x="16.22" y="88.65" width="6.36" height="1.19"/><rect class="cls-3" x="17.47" y="102.93" width="6.36" height="1.19" transform="translate(-17.69 5.17) rotate(-10.01)"/><rect class="cls-3" x="21.18" y="116.77" width="6.36" height="1.19" transform="translate(-38.71 15.43) rotate(-20.02)"/><rect class="cls-3" x="27.23" y="129.76" width="6.36" height="1.19" transform="translate(-61.09 32.66) rotate(-29.99)"/><rect class="cls-3" x="35.45" y="141.5" width="6.36" height="1.19" transform="translate(-82.31 58.09) rotate(-40.01)"/><rect class="cls-3" x="45.59" y="151.63" width="6.36" height="1.19" transform="translate(-99.2 91.76) rotate(-50.01)"/><rect class="cls-3" x="57.33" y="159.85" width="6.36" height="1.19" transform="translate(-108.7 132.64) rotate(-60.01)"/><rect class="cls-3" x="70.31" y="165.91" width="6.36" height="1.19" transform="translate(-108.1 178.64) rotate(-70.01)"/><rect class="cls-3" x="84.16" y="169.62" width="6.36" height="1.19" transform="translate(-95.47 226.63) rotate(-79.99)"/><rect class="cls-3" x="101.02" y="168.28" width="1.19" height="6.36"/><rect class="cls-3" x="115.29" y="167.03" width="1.19" height="6.36" transform="translate(-27.79 22.7) rotate(-10)"/><rect class="cls-3" x="129.14" y="163.32" width="1.19" height="6.36" transform="translate(-49.13 54.42) rotate(-20)"/><rect class="cls-3" x="142.12" y="157.27" width="1.19" height="6.36" transform="translate(-61.1 92.86) rotate(-30)"/><rect class="cls-3" x="153.86" y="149.05" width="1.19" height="6.36" transform="translate(-61.71 134.9) rotate(-40)"/><rect class="cls-3" x="164" y="138.91" width="1.19" height="6.36" transform="translate(-50.06 176.84) rotate(-50)"/><rect class="cls-3" x="172.22" y="127.18" width="1.19" height="6.36" transform="translate(-26.49 214.83) rotate(-60)"/><rect class="cls-3" x="178.27" y="114.19" width="1.19" height="6.36" transform="translate(7.4 245.3) rotate(-70)"/><rect class="cls-3" x="175.69" y="60.53" width="6.36" height="1.19" transform="translate(-10.12 64.84) rotate(-19.99)"/><rect class="cls-3" x="169.63" y="47.55" width="6.36" height="1.19" transform="translate(-0.92 92.84) rotate(-29.99)"/><rect class="cls-3" x="161.41" y="35.81" width="6.36" height="1.19" transform="translate(15.09 114.28) rotate(-39.99)"/><rect class="cls-3" x="151.28" y="25.67" width="6.36" height="1.19" transform="translate(35.04 127.69) rotate(-49.99)"/><rect class="cls-3" x="139.54" y="17.45" width="6.36" height="1.19" transform="translate(55.74 132.63) rotate(-60.01)"/><rect class="cls-3" x="126.55" y="11.4" width="6.36" height="1.19" transform="translate(74.05 129.78) rotate(-69.98)"/><path class="cls-8" d="M129.71,149c-7,5.5-16.26,8.43-27.1,8.43A76.37,76.37,0,0,1,91,156.56c-1.29-.91-7.32-6.27-6.19-26.33.68-12.22,6.73-17.67,11.68-20.08,6.06-3,12.93-2.48,16.06-.31s5.78,8.54,4,12.93a6.12,6.12,0,0,1-4.45,3.68,12.76,12.76,0,0,0,1.2-5.37,6.3,6.3,0,0,0-2.76-5.93c-2.12-1.31-5.13-1.19-7.86.31-4.06,2.23-6.52,6.72-6.59,12-.1,8.18,5.27,16.72,13.06,20.77C113.06,150.28,120.26,152.51,129.71,149Z"/><path class="cls-9" d="M139.35,137.26a34.89,34.89,0,0,1-2.32,3.88h0c-9.31,6.62-18.65,8.06-26.35,4.06-6.7-3.49-11.31-10.77-11.23-17.71,0-4,1.85-7.42,4.82-9.06,1.64-.9,3.38-1.06,4.44-.4a3.18,3.18,0,0,1,1.16,2.91c-.1,2.57-.71,4.33-1.78,5.13a2.82,2.82,0,0,1-1.79.51l-.69-.11-.76,3.31a5.51,5.51,0,0,0,1.09.18c9.28,1.28,12.58-3.12,13.72-5.92,2.43-6-.74-13.91-5.21-17-3.88-2.69-12-3.59-19.48.06-4.73,2.3-12.77,8.35-13.59,22.94-.78,13.8,1.73,21.37,4.21,25.42-15.64-4-22.54-13.82-25.13-24.31h0c-.05-.21-4.42-21.16,34.91-47.7,22-14.87,27.42-28.13,28.08-36.65l.22.49c6.37,15,4.86,30.51,3.22,33.89-6.67,13.68-3.51,19.86-3.12,20.52l.75,1.3,1.38-.59c6.11-2.57,9.41-8,11-11.58C145.39,104.88,146.48,123.51,139.35,137.26Z"/><path class="cls-10" d="M119.33,50.63c-1.8,6.94-7.73,17.78-25.83,30C71.76,95.3,62.77,108.42,59.16,117.72c.33-13.83,4.61-37.93,27.66-56.28,14.74-11.73,11.42-32.36,9.44-40.34A47.24,47.24,0,0,1,119,38.62h0C119.17,39.05,121.16,43.59,119.33,50.63Z"/></g></g></g></svg>