<svg xmlns="http://www.w3.org/2000/svg" xmlns:xlink="http://www.w3.org/1999/xlink" viewBox="0 0 201.56 189.68"><defs><style>.cls-1{isolation:isolate;}.cls-2{mix-blend-mode:multiply;opacity:0.4;fill:url(#radial-gradient);}.cls-3{fill:#4393b8;}.cls-4{fill:url(#linear-gradient);}.cls-5{fill:url(#linear-gradient-2);}.cls-6{fill:#37819b;}.cls-7{fill:#2a7184;}.cls-8{fill:url(#linear-gradient-3);}.cls-9{fill:url(#linear-gradient-4);}.cls-10{fill:url(#linear-gradient-5);}</style><radialGradient id="radial-gradient" cx="123.36" cy="164.13" r="58.4" gradientTransform="translate(-52.6 136.86) scale(1.24 0.25)" gradientUnits="userSpaceOnUse"><stop offset="0" stop-opacity="0.95"/><stop offset="0.11" stop-color="#070707" stop-opacity="0.93"/><stop offset="0.23" stop-color="#1b1c1c" stop-opacity="0.89"/><stop offset="0.37" stop-color="#3d3e3f" stop-opacity="0.81"/><stop offset="0.5" stop-color="#6c6d6f" stop-opacity="0.7"/><stop offset="0.55" stop-color="#808184" stop-opacity="0.65"/><stop offset="0.69" stop-color="#87888b" stop-opacity="0.41"/><stop offset="0.9" stop-color="#8f9194" stop-opacity="0.11"/><stop offset="1" stop-color="#929497" stop-opacity="0"/></radialGradient><linearGradient id="linear-gradient" x1="101.64" y1="200.86" x2="101.64" y2="24.74" gradientUnits="userSpaceOnUse"><stop offset="0" stop-color="#4393b8"/><stop offset="0.24" stop-color="#c7e4f3"/><stop offset="0.49" stop-color="#4393b8"/><stop offset="1" stop-color="#c7e3f3"/></linearGradient><linearGradient id="linear-gradient-2" x1="101.64" y1="181.07" x2="101.64" y2="11.47" gradientUnits="userSpaceOnUse"><stop offset="0" stop-color="#7bafd5"/><stop offset="0.24" stop-color="#c7e4f3"/><stop offset="0.49" stop-color="#79add4"/><stop offset="1" stop-color="#c7e3f3"/></linearGradient><linearGradient id="linear-gradient-3" x1="70.99" y1="41.36" x2="70.99" y2="150.73" gradientUnits="userSpaceOnUse"><stop offset="0" stop-color="#cfe9f6"/><stop offset="1" stop-color="#65a0cc"/></linearGradient><linearGradient id="linear-gradient-4" x1="132.91" y1="41.36" x2="132.91" y2="150.73" xlink:href="#linear-gradient-3"/><linearGradient id="linear-gradient-5" x1="103.23" y1="41.36" x2="103.23" y2="150.73" xlink:href="#linear-gradient-3"/></defs><g class="cls-1"><g id="Layer_2" data-name="Layer 2"><g id="Layer_1-2" data-name="Layer 1"><path class="cls-2" d="M201.56,177.67c0,6.63-45.12,12-100.78,12S0,184.3,0,177.67s45.12-12,100.78-12S201.56,171,201.56,177.67Z"/><path class="cls-3" d="M101.64,0a89.25,89.25,0,1,0,89.24,89.25A89.35,89.35,0,0,0,101.64,0Zm0,177.31A88.06,88.06,0,1,1,189.7,89.25,88.16,88.16,0,0,1,101.64,177.31Z"/><path class="cls-4" d="M101.64,1.19A88.06,88.06,0,1,0,189.7,89.25,88.16,88.16,0,0,0,101.64,1.19Zm0,174a86,86,0,1,1,86-86A86.09,86.09,0,0,1,101.64,175.23Z"/><path class="cls-3" d="M101.64,3.26a86,86,0,1,0,86,86A86.09,86.09,0,0,0,101.64,3.26Zm0,170.79a84.8,84.8,0,1,1,84.8-84.8A84.9,84.9,0,0,1,101.64,174.05Z"/><path class="cls-5" d="M101.64,4.45a84.8,84.8,0,1,0,84.8,84.8A84.89,84.89,0,0,0,101.64,4.45Zm0,164.43a79.63,79.63,0,1,1,79.63-79.63A79.72,79.72,0,0,1,101.64,168.88Z"/><path class="cls-3" d="M101.64,9.62a79.63,79.63,0,1,0,79.63,79.63A79.72,79.72,0,0,0,101.64,9.62Zm0,158.07a78.45,78.45,0,1,1,78.44-78.44A78.52,78.52,0,0,1,101.64,167.69Z"/><path class="cls-6" d="M101.64,10.8a78.45,78.45,0,1,0,78.44,78.45A78.53,78.53,0,0,0,101.64,10.8Zm0,154.77A76.33,76.33,0,1,1,178,89.25,76.41,76.41,0,0,1,101.64,165.57Z"/><path class="cls-7" d="M101.64,12.92A76.33,76.33,0,1,0,178,89.25,76.41,76.41,0,0,0,101.64,12.92Zm0,151.47a75.14,75.14,0,1,1,75.14-75.14A75.23,75.23,0,0,1,101.64,164.39Z"/><circle class="cls-3" cx="101.64" cy="89.25" r="75.14"/><rect class="cls-3" x="72.93" y="8.81" width="1.19" height="6.36" transform="matrix(0.94, -0.34, 0.34, 0.94, 0.33, 25.87)"/><rect class="cls-3" x="59.94" y="14.87" width="1.19" height="6.36" transform="translate(-0.91 32.68) rotate(-30)"/><rect class="cls-3" x="48.2" y="23.09" width="1.19" height="6.36" transform="translate(-5.47 37.51) rotate(-40)"/><rect class="cls-3" x="38.07" y="33.22" width="1.19" height="6.36" transform="translate(-14.07 42.62) rotate(-50)"/><rect class="cls-3" x="29.85" y="44.96" width="1.19" height="6.36" transform="translate(-26.47 50.43) rotate(-60)"/><rect class="cls-3" x="23.79" y="57.95" width="1.19" height="6.36" transform="translate(-41.4 63.13) rotate(-70)"/><rect class="cls-3" x="20.08" y="71.79" width="1.19" height="6.36" transform="matrix(0.17, -0.98, 0.98, 0.17, -56.75, 82.31)"/><rect class="cls-3" x="16.25" y="88.65" width="6.36" height="1.19"/><rect class="cls-3" x="17.5" y="102.93" width="6.36" height="1.19" transform="translate(-17.69 5.17) rotate(-10.01)"/><rect class="cls-3" x="21.21" y="116.77" width="6.36" height="1.19" transform="translate(-38.7 15.44) rotate(-20.02)"/><rect class="cls-3" x="27.26" y="129.76" width="6.36" height="1.19" transform="translate(-61.09 32.68) rotate(-29.99)"/><rect class="cls-3" x="35.48" y="141.5" width="6.36" height="1.19" transform="translate(-82.3 58.11) rotate(-40.01)"/><rect class="cls-3" x="45.62" y="151.63" width="6.36" height="1.19" transform="translate(-99.19 91.78) rotate(-50.01)"/><rect class="cls-3" x="57.35" y="159.85" width="6.36" height="1.19" transform="translate(-108.69 132.66) rotate(-60.01)"/><rect class="cls-3" x="70.34" y="165.91" width="6.36" height="1.19" transform="translate(-108.08 178.66) rotate(-70.01)"/><rect class="cls-3" x="84.18" y="169.62" width="6.36" height="1.19" transform="translate(-95.44 226.66) rotate(-79.99)"/><rect class="cls-3" x="101.04" y="168.28" width="1.19" height="6.36"/><rect class="cls-3" x="115.32" y="167.03" width="1.19" height="6.36" transform="translate(-27.79 22.71) rotate(-10)"/><rect class="cls-3" x="129.16" y="163.32" width="1.19" height="6.36" transform="translate(-49.13 54.43) rotate(-20)"/><rect class="cls-3" x="142.15" y="157.27" width="1.19" height="6.36" transform="translate(-61.1 92.87) rotate(-30)"/><rect class="cls-3" x="153.89" y="149.05" width="1.19" height="6.36" transform="translate(-61.71 134.92) rotate(-40)"/><rect class="cls-3" x="164.02" y="138.91" width="1.19" height="6.36" transform="translate(-50.05 176.86) rotate(-50)"/><rect class="cls-3" x="172.24" y="127.18" width="1.19" height="6.36" transform="translate(-26.47 214.85) rotate(-60)"/><rect class="cls-3" x="178.3" y="114.19" width="1.19" height="6.36" transform="matrix(0.34, -0.94, 0.94, 0.34, 7.42, 245.32)"/><rect class="cls-3" x="182.01" y="100.34" width="1.19" height="6.36" transform="translate(48.95 265.38) rotate(-80)"/><rect class="cls-3" x="180.67" y="88.65" width="6.36" height="1.19"/><rect class="cls-3" x="179.43" y="74.38" width="6.36" height="1.19" transform="translate(-10.25 32.88) rotate(-10.01)"/><rect class="cls-3" x="175.72" y="60.53" width="6.36" height="1.19" transform="translate(-10.12 64.85) rotate(-19.99)"/><rect class="cls-3" x="169.66" y="47.55" width="6.36" height="1.19" transform="translate(-0.92 92.85) rotate(-29.99)"/><rect class="cls-3" x="161.44" y="35.81" width="6.36" height="1.19" transform="translate(15.1 114.3) rotate(-39.99)"/><rect class="cls-3" x="151.31" y="25.67" width="6.36" height="1.19" transform="translate(35.05 127.71) rotate(-49.99)"/><rect class="cls-3" x="139.57" y="17.45" width="6.36" height="1.19" transform="translate(55.75 132.65) rotate(-60.01)"/><rect class="cls-3" x="126.58" y="11.4" width="6.36" height="1.19" transform="translate(74.07 129.8) rotate(-69.98)"/><path class="cls-8" d="M86.43,61.3a17.25,17.25,0,0,0-24.37,0,14.36,14.36,0,0,0,0,20.28,12,12,0,0,0,17,0,10.2,10.2,0,0,0,0-14.39,8.62,8.62,0,0,0-6.14-2.54,5.5,5.5,0,0,0-5.29,4c-.29,1.59-.15,4.87,3.05,5.21a2,2,0,0,1,0-2.8,3.23,3.23,0,0,1,4.47,0,4.64,4.64,0,0,1,0,6.57,6.51,6.51,0,0,1-9.19,0A8.82,8.82,0,0,1,66,65.2a11.73,11.73,0,0,1,16.56,0,15.34,15.34,0,0,1,0,21.68,19.87,19.87,0,0,1-28.07,0,25.53,25.53,0,0,1,0-36.06,32.6,32.6,0,0,1,46.06,0c0-7.4-12.86-15.07-23-15.07A37.85,37.85,0,0,0,50.55,46.91a31,31,0,0,0,0,43.87,25.4,25.4,0,0,0,35.88,0A20.87,20.87,0,0,0,86.43,61.3Z"/><path class="cls-9" d="M160.91,60.62A31.06,31.06,0,0,0,124,36.91a25.41,25.41,0,0,0-19.38,30.2A20.87,20.87,0,0,0,129.42,83a17.26,17.26,0,0,0,13.17-20.51,14.36,14.36,0,0,0-17.07-11,12,12,0,0,0-9.18,14.3,10.18,10.18,0,0,0,12.1,7.77,8.6,8.6,0,0,0,5.46-3.79,5.48,5.48,0,0,0-.55-6.63c-1.17-1.11-4-2.76-6-.25a2,2,0,0,1,2.35,1.51,3.23,3.23,0,0,1-2.41,3.77,4.65,4.65,0,0,1-5.53-3.55,6.5,6.5,0,0,1,5-7.74,8.82,8.82,0,0,1,10.49,6.74,11.72,11.72,0,0,1-8.94,13.93A15.34,15.34,0,0,1,110,65.93a19.87,19.87,0,0,1,15.16-23.62,25.54,25.54,0,0,1,30.35,19.48,32.61,32.61,0,0,1-24.88,38.76c6.23,4,19.62-2.68,25.11-11.24A37.81,37.81,0,0,0,160.91,60.62Z"/><path class="cls-10" d="M122.16,102.73a20.87,20.87,0,0,0-28.25,8.44,17.25,17.25,0,0,0,7,23.35,14.35,14.35,0,0,0,19.42-5.81,12,12,0,0,0-4.86-16.29,10.19,10.19,0,0,0-13.78,4.12,8.58,8.58,0,0,0-.68,6.62,5.48,5.48,0,0,0,5.38,3.9c1.61-.17,4.71-1.25,4.12-4.41a2,2,0,0,1-2.68.8,3.25,3.25,0,0,1-1.29-4.29,4.67,4.67,0,0,1,6.3-1.88,6.5,6.5,0,0,1,2.63,8.81,8.81,8.81,0,0,1-11.94,3.57,11.73,11.73,0,0,1-4.74-15.87,15.34,15.34,0,0,1,20.77-6.2,19.86,19.86,0,0,1,8,26.89A25.53,25.53,0,0,1,93,144.81a32.61,32.61,0,0,1-13.19-44.13c-7.09,2.12-10.75,16.63-7.83,26.37a37.85,37.85,0,0,0,18.39,22.62,31.07,31.07,0,0,0,42-12.56,25.41,25.41,0,0,0-10.27-34.38Z"/></g></g></g></svg>