<svg xmlns="http://www.w3.org/2000/svg" xmlns:xlink="http://www.w3.org/1999/xlink" viewBox="0 0 201.56 194.19"><defs><style>.cls-1{isolation:isolate;}.cls-2{mix-blend-mode:multiply;opacity:0.4;fill:url(#radial-gradient);}.cls-3{fill:#014171;}.cls-4{fill:url(#linear-gradient);}.cls-5{fill:url(#linear-gradient-2);}.cls-6{fill:#023554;}.cls-7{fill:#021d2d;}.cls-8{fill:url(#linear-gradient-3);}.cls-9{fill:url(#linear-gradient-4);}.cls-10{fill:url(#linear-gradient-5);}.cls-11{fill:url(#linear-gradient-6);}.cls-12{fill:url(#linear-gradient-7);}</style><radialGradient id="radial-gradient" cx="102.02" cy="105.33" r="58.4" gradientTransform="translate(-26.07 155.98) scale(1.24 0.25)" gradientUnits="userSpaceOnUse"><stop offset="0" stop-opacity="0.95"/><stop offset="0.11" stop-color="#070707" stop-opacity="0.93"/><stop offset="0.23" stop-color="#1b1c1c" stop-opacity="0.89"/><stop offset="0.37" stop-color="#3d3e3f" stop-opacity="0.81"/><stop offset="0.5" stop-color="#6c6d6f" stop-opacity="0.7"/><stop offset="0.55" stop-color="#808184" stop-opacity="0.65"/><stop offset="0.69" stop-color="#87888b" stop-opacity="0.41"/><stop offset="0.9" stop-color="#8f9194" stop-opacity="0.11"/><stop offset="1" stop-color="#929497" stop-opacity="0"/></radialGradient><linearGradient id="linear-gradient" x1="103.08" y1="200.86" x2="103.08" y2="24.74" gradientUnits="userSpaceOnUse"><stop offset="0" stop-color="#014171"/><stop offset="0.24" stop-color="#00a1e1"/><stop offset="0.5" stop-color="#014171"/><stop offset="1" stop-color="#00a3e4"/></linearGradient><linearGradient id="linear-gradient-2" x1="103.08" y1="181.07" x2="103.08" y2="11.47" gradientUnits="userSpaceOnUse"><stop offset="0" stop-color="#0073ae"/><stop offset="0.24" stop-color="#00a1e1"/><stop offset="0.5" stop-color="#0074af"/><stop offset="1" stop-color="#00a3e4"/></linearGradient><linearGradient id="linear-gradient-3" x1="131.16" y1="68.47" x2="131.16" y2="169.6" gradientUnits="userSpaceOnUse"><stop offset="0" stop-color="#00adef"/><stop offset="1" stop-color="#0069a3"/></linearGradient><linearGradient id="linear-gradient-4" x1="113.07" y1="68.47" x2="113.07" y2="169.6" xlink:href="#linear-gradient-3"/><linearGradient id="linear-gradient-5" x1="102.49" y1="68.47" x2="102.49" y2="169.6" xlink:href="#linear-gradient-3"/><linearGradient id="linear-gradient-6" x1="104.22" y1="68.47" x2="104.22" y2="169.6" xlink:href="#linear-gradient-3"/><linearGradient id="linear-gradient-7" x1="72.76" y1="68.47" x2="72.76" y2="169.6" xlink:href="#linear-gradient-3"/></defs><g class="cls-1"><g id="Layer_2" data-name="Layer 2"><g id="Layer_1-2" data-name="Layer 1"><path class="cls-2" d="M201.56,182.18c0,6.63-45.12,12-100.78,12S0,188.81,0,182.18s45.12-12,100.78-12S201.56,175.55,201.56,182.18Z"/><path class="cls-3" d="M103.08,0a89.25,89.25,0,1,0,89.25,89.25A89.35,89.35,0,0,0,103.08,0Zm0,177.31a88.06,88.06,0,1,1,88.06-88.06A88.16,88.16,0,0,1,103.08,177.31Z"/><path class="cls-4" d="M103.08,1.19a88.06,88.06,0,1,0,88.06,88.06A88.16,88.16,0,0,0,103.08,1.19Zm0,174a86,86,0,1,1,86-86A86.09,86.09,0,0,1,103.08,175.23Z"/><path class="cls-3" d="M103.08,3.26a86,86,0,1,0,86,86A86.09,86.09,0,0,0,103.08,3.26Zm0,170.79a84.8,84.8,0,1,1,84.8-84.8A84.9,84.9,0,0,1,103.08,174.05Z"/><path class="cls-5" d="M103.08,4.45a84.8,84.8,0,1,0,84.8,84.8A84.89,84.89,0,0,0,103.08,4.45Zm0,164.43a79.63,79.63,0,1,1,79.63-79.63A79.72,79.72,0,0,1,103.08,168.88Z"/><path class="cls-3" d="M103.08,9.62a79.63,79.63,0,1,0,79.63,79.63A79.72,79.72,0,0,0,103.08,9.62Zm0,158.07a78.45,78.45,0,1,1,78.44-78.44A78.53,78.53,0,0,1,103.08,167.69Z"/><path class="cls-6" d="M103.08,10.8a78.45,78.45,0,1,0,78.44,78.45A78.53,78.53,0,0,0,103.08,10.8Zm0,154.77a76.33,76.33,0,1,1,76.33-76.32A76.41,76.41,0,0,1,103.08,165.57Z"/><path class="cls-7" d="M103.08,12.92a76.33,76.33,0,1,0,76.33,76.33A76.41,76.41,0,0,0,103.08,12.92Zm0,151.47a75.14,75.14,0,1,1,75.14-75.14A75.23,75.23,0,0,1,103.08,164.39Z"/><circle class="cls-3" cx="103.08" cy="89.25" r="75.14"/><rect class="cls-3" x="102.49" y="3.86" width="1.19" height="6.36"/><rect class="cls-3" x="88.21" y="5.1" width="1.19" height="6.36" transform="translate(-0.09 15.55) rotate(-10)"/><rect class="cls-3" x="74.37" y="8.81" width="1.19" height="6.36" transform="translate(0.42 26.36) rotate(-20)"/><rect class="cls-3" x="61.38" y="14.87" width="1.19" height="6.36" transform="translate(-0.72 33.4) rotate(-30)"/><rect class="cls-3" x="49.64" y="23.09" width="1.19" height="6.36" transform="translate(-5.13 38.43) rotate(-40)"/><rect class="cls-3" x="39.51" y="33.22" width="1.19" height="6.36" transform="translate(-13.56 43.72) rotate(-50)"/><rect class="cls-3" x="31.29" y="44.96" width="1.19" height="6.36" transform="translate(-25.75 51.68) rotate(-60)"/><rect class="cls-3" x="25.23" y="57.95" width="1.19" height="6.36" transform="translate(-40.45 64.49) rotate(-70)"/><rect class="cls-3" x="22.65" y="116.77" width="6.36" height="1.19" transform="translate(-38.62 15.93) rotate(-20.02)"/><rect class="cls-3" x="28.7" y="129.76" width="6.36" height="1.19" transform="translate(-60.9 33.4) rotate(-29.99)"/><rect class="cls-3" x="36.92" y="141.5" width="6.36" height="1.19" transform="translate(-81.96 59.03) rotate(-40.01)"/><rect class="cls-3" x="47.06" y="151.63" width="6.36" height="1.19" transform="translate(-98.68 92.89) rotate(-50.01)"/><rect class="cls-3" x="58.8" y="159.85" width="6.36" height="1.19" transform="translate(-107.97 133.91) rotate(-60.01)"/><rect class="cls-3" x="71.78" y="165.91" width="6.36" height="1.19" transform="translate(-107.14 180.02) rotate(-70.01)"/><rect class="cls-3" x="85.63" y="169.62" width="6.36" height="1.19" transform="translate(-94.25 228.08) rotate(-79.99)"/><rect class="cls-3" x="102.49" y="168.28" width="1.19" height="6.36"/><rect class="cls-3" x="116.76" y="167.03" width="1.19" height="6.36" transform="translate(-27.77 22.96) rotate(-10)"/><rect class="cls-3" x="130.61" y="163.32" width="1.19" height="6.36" transform="translate(-49.04 54.92) rotate(-20)"/><rect class="cls-3" x="143.59" y="157.27" width="1.19" height="6.36" transform="translate(-60.91 93.59) rotate(-30)"/><rect class="cls-3" x="155.33" y="149.05" width="1.19" height="6.36" transform="translate(-61.37 135.84) rotate(-40)"/><rect class="cls-3" x="152.75" y="25.67" width="6.36" height="1.19" transform="translate(35.57 128.82) rotate(-49.99)"/><rect class="cls-3" x="141.01" y="17.45" width="6.36" height="1.19" transform="translate(56.47 133.9) rotate(-60.01)"/><rect class="cls-3" x="128.02" y="11.4" width="6.36" height="1.19" transform="matrix(0.34, -0.94, 0.94, 0.34, 75.02, 131.16)"/><rect class="cls-3" x="114.18" y="7.69" width="6.36" height="1.19" transform="translate(88.79 122.41) rotate(-79.99)"/><path class="cls-8" d="M159.57,121.1a66.68,66.68,0,0,1-56.82,35.66c6-3.46,11.61-10.4,17.09-17.18,4.46-5.54,8.69-10.76,12.88-13.85C142.39,118.6,155.26,120.27,159.57,121.1Z"/><path class="cls-9" d="M163.71,111.45a64.54,64.54,0,0,1-3,7.45c-3.89-.86-18.29-3.25-29.37,4.91-4.44,3.28-8.75,8.62-13.32,14.27-7.23,9-14.7,18.21-22.48,18.53h0a66.26,66.26,0,0,1-33.05-11.84,29.28,29.28,0,0,0,5.73.56c15.64,0,31.25-12,44.33-22,4.55-3.49,8.84-6.78,12.69-9.23C140.16,104.54,159.06,109.9,163.71,111.45Z"/><path class="cls-10" d="M166.25,101.4a65,65,0,0,1-1.81,7.77c-5.06-1.72-24.53-7.27-40.53,2.91-4,2.5-8.27,5.83-12.86,9.35-16,12.27-35.87,27.54-54.13,19A66.67,66.67,0,0,1,38.73,115a42,42,0,0,0,24.6,7.76c17.14,0,34-9.39,47.62-17,6.43-3.58,12-6.67,16.39-8.11a36.77,36.77,0,0,1,5.17-1.27h.09l.08,0C147.46,93.86,162.61,99.83,166.25,101.4Z"/><path class="cls-11" d="M121.81,97.32c-3.58,1.65-7.59,3.89-12,6.36-1.81,1-3.67,2-5.58,3.08-2.43-.55-15.63-4.05-17.32-14.83-.76-4.86,0-8.78,2.4-11.67a13.27,13.27,0,0,1,9.43-4.55c3.37-.17,6,.67,7.82,2.5a9.73,9.73,0,0,1,2.35,4.12,9.5,9.5,0,0,0-5.75-2c-3.76,0-6.49,2.67-7.3,7A6.08,6.08,0,0,0,97.45,93C101.61,97.34,113.07,97.73,121.81,97.32Z"/><path class="cls-12" d="M101.16,108.4C88.31,115.21,73.43,121.64,58.7,120c-1.85-.9-15.44-8.05-14.28-25.36C45,86.26,48.48,79.62,54.23,76a20.33,20.33,0,0,1,18.29-1.36c6.32,2.5,11.51,10.87,11.11,17.9-.23,4-2.25,9.14-10.6,11.4-7.51,2-10.81-1.63-12.11-4-2.23-4-1.72-9.64,1.1-12.24,2.25-2.08,5.65-1.79,9.58.81h0c-5.13-5.6-9.38-4.23-11.19-2.56-3.62,3.34-4.33,10.13-1.57,15.14S67,108,73.65,106.21c7.85-2.12,10.8-6.69,11.84-10.45C88.49,103.47,96.68,107,101.16,108.4Z"/></g></g></g></svg>