<svg xmlns="http://www.w3.org/2000/svg" xmlns:xlink="http://www.w3.org/1999/xlink" viewBox="0 0 201.56 194.19"><defs><style>.cls-1{isolation:isolate;}.cls-2{mix-blend-mode:multiply;opacity:0.4;fill:url(#radial-gradient);}.cls-3{fill:#254f06;}.cls-4{fill:url(#linear-gradient);}.cls-5{fill:url(#linear-gradient-2);}.cls-6{fill:#203f06;}.cls-7{fill:#182d05;}.cls-8{fill:url(#linear-gradient-3);}.cls-9{fill:url(#linear-gradient-4);}.cls-10{fill:url(#linear-gradient-5);}.cls-11{fill:url(#linear-gradient-6);}</style><radialGradient id="radial-gradient" cx="60.72" cy="105.33" r="58.4" gradientTransform="translate(25.29 155.98) scale(1.24 0.25)" gradientUnits="userSpaceOnUse"><stop offset="0" stop-opacity="0.95"/><stop offset="0.11" stop-color="#070707" stop-opacity="0.93"/><stop offset="0.23" stop-color="#1b1c1c" stop-opacity="0.89"/><stop offset="0.37" stop-color="#3d3e3f" stop-opacity="0.81"/><stop offset="0.5" stop-color="#6c6d6f" stop-opacity="0.7"/><stop offset="0.55" stop-color="#808184" stop-opacity="0.65"/><stop offset="0.69" stop-color="#87888b" stop-opacity="0.41"/><stop offset="0.9" stop-color="#8f9194" stop-opacity="0.11"/><stop offset="1" stop-color="#929497" stop-opacity="0"/></radialGradient><linearGradient id="linear-gradient" x1="104.55" y1="200.86" x2="104.55" y2="24.74" gradientUnits="userSpaceOnUse"><stop offset="0" stop-color="#838524"/><stop offset="0.24" stop-color="#bfc551"/><stop offset="0.49" stop-color="#828423"/><stop offset="1" stop-color="#bfc451"/></linearGradient><linearGradient id="linear-gradient-2" x1="104.55" y1="181.07" x2="104.55" y2="11.47" xlink:href="#linear-gradient"/><linearGradient id="linear-gradient-3" x1="107.07" y1="65.5" x2="107.07" y2="155.15" gradientUnits="userSpaceOnUse"><stop offset="0" stop-color="#c0c652"/><stop offset="1" stop-color="#828423"/></linearGradient><linearGradient id="linear-gradient-4" x1="82.6" y1="65.5" x2="82.6" y2="155.15" xlink:href="#linear-gradient-3"/><linearGradient id="linear-gradient-5" x1="64.13" y1="65.5" x2="64.13" y2="155.15" xlink:href="#linear-gradient-3"/><linearGradient id="linear-gradient-6" x1="145.07" y1="65.5" x2="145.07" y2="155.15" xlink:href="#linear-gradient-3"/></defs><g class="cls-1"><g id="Layer_2" data-name="Layer 2"><g id="Layer_1-2" data-name="Layer 1"><path class="cls-2" d="M201.56,182.18c0,6.63-45.12,12-100.78,12S0,188.81,0,182.18s45.12-12,100.78-12S201.56,175.55,201.56,182.18Z"/><path class="cls-3" d="M104.55,0A89.25,89.25,0,1,0,193.8,89.25,89.35,89.35,0,0,0,104.55,0Zm0,177.31a88.06,88.06,0,1,1,88.06-88.06A88.16,88.16,0,0,1,104.55,177.31Z"/><path class="cls-4" d="M104.55,1.19a88.06,88.06,0,1,0,88.06,88.06A88.16,88.16,0,0,0,104.55,1.19Zm0,174a86,86,0,1,1,86-86A86.09,86.09,0,0,1,104.55,175.23Z"/><path class="cls-3" d="M104.55,3.26a86,86,0,1,0,86,86A86.09,86.09,0,0,0,104.55,3.26Zm0,170.79a84.8,84.8,0,1,1,84.8-84.8A84.9,84.9,0,0,1,104.55,174.05Z"/><path class="cls-5" d="M104.55,4.45a84.8,84.8,0,1,0,84.8,84.8A84.89,84.89,0,0,0,104.55,4.45Zm0,164.43a79.63,79.63,0,1,1,79.63-79.63A79.72,79.72,0,0,1,104.55,168.88Z"/><path class="cls-3" d="M104.55,9.62a79.63,79.63,0,1,0,79.63,79.63A79.72,79.72,0,0,0,104.55,9.62Zm0,158.07A78.45,78.45,0,1,1,183,89.25,78.53,78.53,0,0,1,104.55,167.69Z"/><path class="cls-6" d="M104.55,10.8A78.45,78.45,0,1,0,183,89.25,78.53,78.53,0,0,0,104.55,10.8Zm0,154.77a76.33,76.33,0,1,1,76.33-76.32A76.41,76.41,0,0,1,104.55,165.57Z"/><path class="cls-7" d="M104.55,12.92a76.33,76.33,0,1,0,76.33,76.33A76.41,76.41,0,0,0,104.55,12.92Zm0,151.47a75.14,75.14,0,1,1,75.14-75.14A75.23,75.23,0,0,1,104.55,164.39Z"/><circle class="cls-3" cx="104.55" cy="89.25" r="75.14"/><rect class="cls-3" x="103.96" y="3.86" width="1.19" height="6.36"/><rect class="cls-3" x="89.68" y="5.1" width="1.19" height="6.36" transform="translate(-0.07 15.81) rotate(-10)"/><rect class="cls-3" x="75.84" y="8.81" width="1.19" height="6.36" transform="translate(0.51 26.87) rotate(-20)"/><rect class="cls-3" x="62.85" y="14.87" width="1.19" height="6.36" transform="translate(-0.52 34.14) rotate(-30)"/><rect class="cls-3" x="51.11" y="23.09" width="1.19" height="6.36" transform="translate(-4.79 39.38) rotate(-40)"/><rect class="cls-3" x="40.98" y="33.22" width="1.19" height="6.36" transform="translate(-13.03 44.85) rotate(-50)"/><rect class="cls-3" x="32.76" y="44.96" width="1.19" height="6.36" transform="translate(-25.01 52.96) rotate(-60)"/><rect class="cls-3" x="26.7" y="57.95" width="1.19" height="6.36" transform="translate(-39.48 65.87) rotate(-70)"/><rect class="cls-3" x="22.99" y="71.79" width="1.19" height="6.36" transform="translate(-54.34 85.18) rotate(-80)"/><rect class="cls-3" x="19.16" y="88.65" width="6.36" height="1.19"/><rect class="cls-3" x="20.41" y="102.93" width="6.36" height="1.19" transform="translate(-17.64 5.68) rotate(-10.01)"/><rect class="cls-3" x="24.12" y="116.77" width="6.36" height="1.19" transform="translate(-38.53 16.44) rotate(-20.02)"/><rect class="cls-3" x="30.17" y="129.76" width="6.36" height="1.19" transform="translate(-60.7 34.13) rotate(-29.99)"/><rect class="cls-3" x="38.39" y="141.5" width="6.36" height="1.19" transform="translate(-81.62 59.98) rotate(-40.01)"/><rect class="cls-3" x="48.53" y="151.63" width="6.36" height="1.19" transform="translate(-98.15 94.02) rotate(-50.01)"/><rect class="cls-3" x="60.27" y="159.85" width="6.36" height="1.19" transform="translate(-107.23 135.18) rotate(-60.01)"/><rect class="cls-3" x="73.25" y="165.91" width="6.36" height="1.19" transform="translate(-106.17 181.4) rotate(-70.01)"/><rect class="cls-3" x="87.1" y="169.62" width="6.36" height="1.19" transform="translate(-93.04 229.53) rotate(-79.99)"/><rect class="cls-3" x="103.96" y="168.28" width="1.19" height="6.36"/><rect class="cls-3" x="118.23" y="167.03" width="1.19" height="6.36" transform="translate(-27.74 23.21) rotate(-10)"/><rect class="cls-3" x="132.08" y="163.32" width="1.19" height="6.36" transform="translate(-48.95 55.42) rotate(-20)"/><rect class="cls-3" x="145.06" y="157.27" width="1.19" height="6.36" transform="translate(-60.71 94.33) rotate(-30)"/><rect class="cls-3" x="156.8" y="149.05" width="1.19" height="6.36" transform="translate(-61.02 136.79) rotate(-40)"/><rect class="cls-3" x="166.94" y="138.91" width="1.19" height="6.36" transform="translate(-49.01 179.09) rotate(-50)"/><rect class="cls-3" x="175.16" y="127.18" width="1.19" height="6.36" transform="translate(-25.02 217.38) rotate(-60)"/><rect class="cls-3" x="181.21" y="114.19" width="1.19" height="6.36" transform="translate(9.33 248.06) rotate(-70)"/><rect class="cls-3" x="184.92" y="100.34" width="1.19" height="6.36" transform="translate(51.36 268.25) rotate(-80)"/><rect class="cls-3" x="183.59" y="88.65" width="6.36" height="1.19"/><rect class="cls-3" x="182.34" y="74.38" width="6.36" height="1.19" transform="translate(-10.21 33.39) rotate(-10.01)"/><rect class="cls-3" x="178.63" y="60.53" width="6.36" height="1.19" transform="translate(-9.94 65.84) rotate(-19.99)"/><rect class="cls-3" x="172.57" y="47.55" width="6.36" height="1.19" transform="translate(-0.53 94.31) rotate(-29.99)"/><rect class="cls-3" x="164.35" y="35.81" width="6.36" height="1.19" transform="matrix(0.77, -0.64, 0.64, 0.77, 15.78, 116.17)"/><rect class="cls-3" x="154.22" y="25.67" width="6.36" height="1.19" transform="translate(36.09 129.94) rotate(-49.99)"/><rect class="cls-3" x="142.48" y="17.45" width="6.36" height="1.19" transform="translate(57.21 135.18) rotate(-60.01)"/><rect class="cls-3" x="129.49" y="11.4" width="6.36" height="1.19" transform="translate(75.99 132.54) rotate(-69.98)"/><rect class="cls-3" x="115.65" y="7.69" width="6.36" height="1.19" transform="translate(90.01 123.86) rotate(-79.99)"/><path class="cls-8" d="M141.34,103.3,115.55,122l10.81,13.15-9.18,19.21h0A66.26,66.26,0,0,1,64.4,142l31.51-36L109.2,96.9l34.2-33.54,6.35,8.21-17.39,21.9Z"/><path class="cls-9" d="M109.55,92.39l-2.24,2.21-13.39,9.17-31.85,36.4a44.67,44.67,0,0,1-6.42-6.33v-1.1L60.06,110H78.22L75.8,97,90.55,76Z"/><path class="cls-10" d="M72.65,96.34l2,10.72h-17L53,131A66.18,66.18,0,0,1,40,104.5L45.82,100h5.1L82.07,68.71l6.22,5.36Z"/><path class="cls-11" d="M170.31,98.12h0a66.53,66.53,0,0,1-49.44,55.44l9-18.81-10-12.18,25.93-18.82-9.51-10.41L151.62,74Z"/></g></g></g></svg>