<svg xmlns="http://www.w3.org/2000/svg" xmlns:xlink="http://www.w3.org/1999/xlink" viewBox="0 0 201.56 189.68"><defs><style>.cls-1{isolation:isolate;}.cls-2{mix-blend-mode:multiply;opacity:0.4;fill:url(#radial-gradient);}.cls-3{fill:#a88011;}.cls-4{fill:url(#linear-gradient);}.cls-5{fill:url(#linear-gradient-2);}.cls-6{fill:#8e6a11;}.cls-7{fill:#7a5910;}.cls-8{fill:url(#linear-gradient-3);}.cls-9{fill:url(#linear-gradient-4);}.cls-10{fill:url(#linear-gradient-5);}</style><radialGradient id="radial-gradient" cx="80.49" cy="164.13" r="58.4" gradientTransform="translate(0.7 136.86) scale(1.24 0.25)" gradientUnits="userSpaceOnUse"><stop offset="0" stop-opacity="0.95"/><stop offset="0.11" stop-color="#070707" stop-opacity="0.93"/><stop offset="0.23" stop-color="#1b1c1c" stop-opacity="0.89"/><stop offset="0.37" stop-color="#3d3e3f" stop-opacity="0.81"/><stop offset="0.5" stop-color="#6c6d6f" stop-opacity="0.7"/><stop offset="0.55" stop-color="#808184" stop-opacity="0.65"/><stop offset="0.69" stop-color="#87888b" stop-opacity="0.41"/><stop offset="0.9" stop-color="#8f9194" stop-opacity="0.11"/><stop offset="1" stop-color="#929497" stop-opacity="0"/></radialGradient><linearGradient id="linear-gradient" x1="102.61" y1="200.86" x2="102.61" y2="24.74" gradientUnits="userSpaceOnUse"><stop offset="0" stop-color="#e1af05"/><stop offset="0.24" stop-color="#fce746"/><stop offset="0.51" stop-color="#e1ae05"/><stop offset="1" stop-color="#fce847"/></linearGradient><linearGradient id="linear-gradient-2" x1="102.61" y1="181.07" x2="102.61" y2="11.47" xlink:href="#linear-gradient"/><linearGradient id="linear-gradient-3" x1="101.47" y1="37.82" x2="104.24" y2="163.28" gradientUnits="userSpaceOnUse"><stop offset="0" stop-color="#ffed4d"/><stop offset="1" stop-color="#dfaa00"/></linearGradient><linearGradient id="linear-gradient-4" x1="76.19" y1="187.87" x2="76.19" y2="249.11" gradientTransform="translate(7.96 -123.2) rotate(5.89)" xlink:href="#linear-gradient-3"/><linearGradient id="linear-gradient-5" x1="463.04" y1="849.66" x2="463.04" y2="910.9" gradientTransform="matrix(0.75, 0.66, -0.66, 0.75, 343.98, -837.17)" xlink:href="#linear-gradient-3"/></defs><g class="cls-1"><g id="Layer_2" data-name="Layer 2"><g id="Layer_1-2" data-name="Layer 1"><path class="cls-2" d="M201.56,177.67c0,6.63-45.12,12-100.78,12S0,184.3,0,177.67s45.12-12,100.78-12S201.56,171,201.56,177.67Z"/><path class="cls-3" d="M102.61,0a89.25,89.25,0,1,0,89.24,89.25A89.35,89.35,0,0,0,102.61,0Zm0,177.31a88.06,88.06,0,1,1,88.06-88.06A88.16,88.16,0,0,1,102.61,177.31Z"/><path class="cls-4" d="M102.61,1.19a88.06,88.06,0,1,0,88.06,88.06A88.16,88.16,0,0,0,102.61,1.19Zm0,174a86,86,0,1,1,86-86A86.09,86.09,0,0,1,102.61,175.23Z"/><path class="cls-3" d="M102.61,3.26a86,86,0,1,0,86,86A86.09,86.09,0,0,0,102.61,3.26Zm0,170.79a84.8,84.8,0,1,1,84.8-84.8A84.9,84.9,0,0,1,102.61,174.05Z"/><path class="cls-5" d="M102.61,4.45a84.8,84.8,0,1,0,84.8,84.8A84.89,84.89,0,0,0,102.61,4.45Zm0,164.43a79.63,79.63,0,1,1,79.63-79.63A79.72,79.72,0,0,1,102.61,168.88Z"/><path class="cls-3" d="M102.61,9.62a79.63,79.63,0,1,0,79.63,79.63A79.72,79.72,0,0,0,102.61,9.62Zm0,158.07a78.45,78.45,0,1,1,78.44-78.44A78.52,78.52,0,0,1,102.61,167.69Z"/><path class="cls-6" d="M102.61,10.8a78.45,78.45,0,1,0,78.44,78.45A78.53,78.53,0,0,0,102.61,10.8Zm0,154.77a76.33,76.33,0,1,1,76.33-76.32A76.41,76.41,0,0,1,102.61,165.57Z"/><path class="cls-7" d="M102.61,12.92a76.33,76.33,0,1,0,76.33,76.33A76.41,76.41,0,0,0,102.61,12.92Zm0,151.47a75.14,75.14,0,1,1,75.14-75.14A75.23,75.23,0,0,1,102.61,164.39Z"/><circle class="cls-3" cx="102.61" cy="89.25" r="75.14"/><rect class="cls-3" x="102.01" y="3.86" width="1.19" height="6.36"/><rect class="cls-3" x="87.74" y="5.1" width="1.19" height="6.36" transform="translate(-0.1 15.47) rotate(-10)"/><rect class="cls-3" x="73.9" y="8.81" width="1.19" height="6.36" transform="translate(0.39 26.2) rotate(-20)"/><rect class="cls-3" x="60.91" y="14.87" width="1.19" height="6.36" transform="translate(-0.78 33.17) rotate(-30)"/><rect class="cls-3" x="49.17" y="23.09" width="1.19" height="6.36" transform="translate(-5.24 38.13) rotate(-40)"/><rect class="cls-3" x="39.03" y="33.22" width="1.19" height="6.36" transform="translate(-13.73 43.36) rotate(-50)"/><rect class="cls-3" x="30.81" y="44.96" width="1.19" height="6.36" transform="translate(-25.99 51.27) rotate(-60)"/><rect class="cls-3" x="24.76" y="57.95" width="1.19" height="6.36" transform="translate(-40.76 64.04) rotate(-70)"/><rect class="cls-3" x="21.05" y="71.79" width="1.19" height="6.36" transform="matrix(0.17, -0.98, 0.98, 0.17, -55.95, 83.26)"/><rect class="cls-3" x="17.22" y="88.65" width="6.36" height="1.19"/><rect class="cls-3" x="18.47" y="102.93" width="6.36" height="1.19" transform="translate(-17.67 5.34) rotate(-10.01)"/><rect class="cls-3" x="22.17" y="116.77" width="6.36" height="1.19" transform="translate(-38.65 15.77) rotate(-20.02)"/><rect class="cls-3" x="28.23" y="129.76" width="6.36" height="1.19" transform="translate(-60.96 33.16) rotate(-29.99)"/><rect class="cls-3" x="36.45" y="141.5" width="6.36" height="1.19" transform="translate(-82.07 58.73) rotate(-40.01)"/><rect class="cls-3" x="46.58" y="151.63" width="6.36" height="1.19" transform="translate(-98.85 92.53) rotate(-50.01)"/><rect class="cls-3" x="58.32" y="159.85" width="6.36" height="1.19" transform="translate(-108.2 133.5) rotate(-60.01)"/><rect class="cls-3" x="71.31" y="165.91" width="6.36" height="1.19" transform="translate(-107.45 179.57) rotate(-70.01)"/><rect class="cls-3" x="85.15" y="169.62" width="6.36" height="1.19" transform="translate(-94.64 227.61) rotate(-79.99)"/><rect class="cls-3" x="102.01" y="168.28" width="1.19" height="6.36"/><rect class="cls-3" x="116.29" y="167.03" width="1.19" height="6.36" transform="translate(-27.77 22.87) rotate(-10)"/><rect class="cls-3" x="130.13" y="163.32" width="1.19" height="6.36" transform="translate(-49.07 54.76) rotate(-20)"/><rect class="cls-3" x="143.12" y="157.27" width="1.19" height="6.36" transform="translate(-60.97 93.36) rotate(-30)"/><rect class="cls-3" x="154.86" y="149.05" width="1.19" height="6.36" transform="translate(-61.48 135.54) rotate(-40)"/><rect class="cls-3" x="164.99" y="138.91" width="1.19" height="6.36" transform="translate(-49.7 177.6) rotate(-50)"/><rect class="cls-3" x="173.21" y="127.18" width="1.19" height="6.36" transform="translate(-25.99 215.69) rotate(-60)"/><rect class="cls-3" x="179.27" y="114.19" width="1.19" height="6.36" transform="translate(8.05 246.23) rotate(-70)"/><rect class="cls-3" x="182.98" y="100.34" width="1.19" height="6.36" transform="translate(49.75 266.34) rotate(-80)"/><rect class="cls-3" x="181.64" y="88.65" width="6.36" height="1.19"/><rect class="cls-3" x="180.39" y="74.38" width="6.36" height="1.19" transform="translate(-10.24 33.05) rotate(-10.01)"/><rect class="cls-3" x="176.68" y="60.53" width="6.36" height="1.19" transform="translate(-10.06 65.18) rotate(-19.99)"/><rect class="cls-3" x="170.63" y="47.55" width="6.36" height="1.19" transform="translate(-0.79 93.34) rotate(-29.99)"/><rect class="cls-3" x="162.41" y="35.81" width="6.36" height="1.19" transform="translate(15.33 114.92) rotate(-39.99)"/><rect class="cls-3" x="152.28" y="25.67" width="6.36" height="1.19" transform="translate(35.4 128.45) rotate(-49.99)"/><rect class="cls-3" x="140.54" y="17.45" width="6.36" height="1.19" transform="translate(56.24 133.49) rotate(-60.01)"/><rect class="cls-3" x="127.55" y="11.4" width="6.36" height="1.19" transform="translate(74.71 130.71) rotate(-69.98)"/><rect class="cls-3" x="113.71" y="7.69" width="6.36" height="1.19" transform="translate(88.4 121.94) rotate(-79.99)"/><polygon class="cls-8" points="139.17 33.9 85.56 77.86 103.17 77.86 75.14 105.89 93.06 105.89 66.05 144.59 124.93 99.22 105.53 99.22 137.4 67.7 121.12 67.7 139.17 33.9"/><polygon class="cls-9" points="53.43 129.69 73.58 95.52 64.16 96.84 66.49 74.22 49.34 105.55 59.26 103.32 53.43 129.69"/><polygon class="cls-10" points="91.4 148.58 127.58 132.29 119.12 127.94 134.08 110.8 102 126.5 111.38 130.4 91.4 148.58"/></g></g></g></svg>