<svg xmlns="http://www.w3.org/2000/svg" viewBox="0 0 130.16 130.17"><defs><style>.cls-1{fill:#ff7543;}.cls-2{fill:#ffbb61;}.cls-3{fill:#bd426a;}.cls-4{fill:#2e9bb4;}.cls-5{fill:#454c53;}.cls-6{fill:#fff;}</style></defs><g id="Layer_2" data-name="Layer 2"><g id="Objects"><path class="cls-1" d="M129.91,65.09a64.73,64.73,0,0,1-3.16,20l-61.67-20L103.2,12.63h0A64.75,64.75,0,0,1,129.91,65.09Z"/><path class="cls-2" d="M65.08,65.09l61.67,20a64.8,64.8,0,0,1-61.67,44.79h-.5V65.25Z"/><path class="cls-3" d="M103.21,12.62h0L65.08,65.09,27,12.63h0a64.94,64.94,0,0,1,76.25,0Z"/><path class="cls-4" d="M64.58,65.25,3.41,85.13A64.95,64.95,0,0,1,27,12.62h0L65.08,65.09Z"/><path class="cls-5" d="M64.58,65.25v64.66A64.78,64.78,0,0,1,3.41,85.13Z"/><path class="cls-6" d="M65.08,12.48a52.61,52.61,0,1,0,52.6,52.6A52.6,52.6,0,0,0,65.08,12.48Zm0,81.57a29,29,0,1,1,29-29A29,29,0,0,1,65.08,94.05Z"/></g></g></svg>